<svg id="bold" xmlns="http://www.w3.org/2000/svg" viewBox="0 0 511.96 511.99"><defs><style>.cls-1{fill:#ec6536;}</style></defs><title>home-solid</title><path class="cls-1" d="M504,231.57l-56-55V37.33a16,16,0,0,0-16-16H357.33a16,16,0,0,0-16,16V72.91L266.84,4.24a16,16,0,0,0-21.91.22L7.93,231.68a27,27,0,0,0-7.89,19,26.7,26.7,0,0,0,26.63,26.65H64V480a32,32,0,0,0,32,32h90.67a16,16,0,0,0,16-16V352a5.36,5.36,0,0,1,5.33-5.34h96a5.36,5.36,0,0,1,5.33,5.34V496a16,16,0,0,0,16,16H416a32,32,0,0,0,32-32V277.33h37.33A26.71,26.71,0,0,0,512,250.66,27.12,27.12,0,0,0,504,231.57Z" transform="translate(-0.04 -0.01)"/></svg>