<svg id="Capa_1" data-name="Capa 1" xmlns="http://www.w3.org/2000/svg" viewBox="0 0 64 64.31"><defs><style>.cls-1{fill:#ec6536;fill-rule:evenodd;}</style></defs><title>whatsapp-solid</title><path class="cls-1" d="M54.67,9.35A31.87,31.87,0,0,0,4.52,47.8L0,64.32l16.9-4.43a32,32,0,0,0,15.22,3.88h0A31.88,31.88,0,0,0,54.67,9.35Zm-22.54,49a26.44,26.44,0,0,1-13.49-3.69l-1-.58-10,2.62,2.67-9.77-.62-1A26.43,26.43,0,1,1,32.13,58.39Zm14.52-19.8c-.79-.41-4.71-2.33-5.43-2.59s-1.26-.41-1.8.4S37.36,39,36.89,39.49s-.93.6-1.72.2a22.17,22.17,0,0,1-6.4-4,24.31,24.31,0,0,1-4.44-5.51c-.46-.8,0-1.23.36-1.62s.79-.93,1.19-1.4a5,5,0,0,0,.79-1.33,1.43,1.43,0,0,0-.06-1.39c-.2-.41-1.8-4.33-2.45-5.92s-1.31-1.35-1.8-1.37-1,0-1.52,0a2.93,2.93,0,0,0-2.12,1,8.9,8.9,0,0,0-2.79,6.64c0,3.92,2.85,7.7,3.25,8.24s5.62,8.58,13.61,12c1.89.81,3.38,1.3,4.53,1.68a10.85,10.85,0,0,0,5,.31c1.54-.22,4.72-1.92,5.38-3.78a6.54,6.54,0,0,0,.47-3.78c-.19-.36-.72-.55-1.52-1Z" transform="translate(0 -0.01)"/></svg>